# xmcd
#
# Track frame offsets:
#	150
#	17314
#	33994
#	52337
#	70862
#	89074
#	109629
#	125512
#	152437
#	166909
#	183609
#	202642
#	220704
#	235792
#
# Disc length: 3331 seconds
#
# Revision: 0
# Processed by: cddbd v1.5.2PL0 Copyright (c) Steve Scherf et al.
# Submitted via: EasyCDDAExtractor 16.1.0.1
#
DISCID=b20d010e
DTITLE=Best of Universe II - Volume 1
DYEAR=2004
DGENRE=Pop
TTITLE0=Charlene - I Have Never Been To Me
TTITLE1=Kool and The Gang - Too Hot
TTITLE2=Jim Diamond - I Should Have Known Better
TTITLE3=Dan Hartman - I Can Dream About You
TTITLE4=Chris de Burgh - The Lady In Red
TTITLE5=Lighthouse Family - High
TTITLE6=Dusty Springfield - The Look Of Love
TTITLE7=10 CC - I Am Not In Love
TTITLE8=Jimmy Cliff - Wonderful World, Beautiful People
TTITLE9=Level 42 - Something About You
TTITLE10=Ronan Keating - When You Say Nothing At All
TTITLE11=Elton John - Your Song
TTITLE12=Barry White - You Are The First, The Last, My Everything
TTITLE13=INXS - Beautiful Girls
EXTD=YEAR: 2004\n
EXTT0=
EXTT1=
EXTT2=
EXTT3=
EXTT4=
EXTT5=
EXTT6=
EXTT7=
EXTT8=
EXTT9=
EXTT10=
EXTT11=
EXTT12=
EXTT13=
PLAYORDER=
